<svg width="56" height="56" viewBox="0 0 56 56" fill="none" xmlns="http://www.w3.org/2000/svg">
<g clip-path="url(#clip0_5_13388)">
<g filter="url(#filter0_d_5_13388)">
<path d="M8 29C8 40.0457 16.9543 49 28 49C39.0457 49 48 40.0457 48 29C48 17.9543 39.0457 9 28 9C16.9543 9 8 17.9543 8 29Z" fill="white"/>
<path fill-rule="evenodd" clip-rule="evenodd" d="M23.7197 29.5303C23.4268 29.2374 23.4268 28.7626 23.7197 28.4697L31.2197 20.9697C31.5126 20.6768 31.9874 20.6768 32.2803 20.9697C32.5732 21.2626 32.5732 21.7374 32.2803 22.0303L25.3107 29L32.2803 35.9697C32.5732 36.2626 32.5732 36.7374 32.2803 37.0303C31.9874 37.3232 31.5126 37.3232 31.2197 37.0303L23.7197 29.5303Z" fill="#1B2124"/>
</g>
</g>
<defs>
<filter id="filter0_d_5_13388" x="0" y="2" width="56" height="56" filterUnits="userSpaceOnUse" color-interpolation-filters="sRGB">
<feFlood flood-opacity="0" result="BackgroundImageFix"/>
<feColorMatrix in="SourceAlpha" type="matrix" values="0 0 0 0 0 0 0 0 0 0 0 0 0 0 0 0 0 0 127 0" result="hardAlpha"/>
<feOffset dy="1"/>
<feGaussianBlur stdDeviation="4"/>
<feComposite in2="hardAlpha" operator="out"/>
<feColorMatrix type="matrix" values="0 0 0 0 0 0 0 0 0 0 0 0 0 0 0 0 0 0 0.08 0"/>
<feBlend mode="normal" in2="BackgroundImageFix" result="effect1_dropShadow_5_13388"/>
<feBlend mode="normal" in="SourceGraphic" in2="effect1_dropShadow_5_13388" result="shape"/>
</filter>
<clipPath id="clip0_5_13388">
<rect width="56" height="56" fill="white" transform="translate(56 56) rotate(180)"/>
</clipPath>
</defs>
</svg>
